<svg width="335" height="168" viewBox="0 0 335 168" fill="none" xmlns="http://www.w3.org/2000/svg">
<g clip-path="url(#clip0)">
<path d="M56.023 4.13049H16.0183C5.37262 4.13049 -1.52588e-05 9.29036 -1.52588e-05 19.5106V74.2099C-1.52588e-05 75.5496 0.720633 76.3745 2.27325 76.3745H14.3661C15.8132 76.3745 16.7448 75.5496 16.7448 74.2099V72.1331C16.7448 67.0669 18.8833 64.3056 24.1974 63.7732H56.023C67.6999 63.7732 72.9729 58.7186 72.9729 47.6735V20.2302C72.9729 9.18506 67.6999 4.13049 56.023 4.13049ZM56.2457 43.0284C56.2457 49.019 54.8864 50.2534 47.7502 50.2534H30.8004C23.6701 50.2534 19.1177 52.6286 16.7389 57.2736V23.5356C16.7389 18.8905 17.8756 17.6503 23.5587 17.6503H47.7502C54.8864 17.6503 56.2457 18.8905 56.2457 24.8753V43.0284Z" fill="white"/>
<path d="M111.32 34.3698C102.121 34.3698 98.1898 39.0149 98.1898 46.86V74.4144C98.1898 75.6546 97.5687 76.3742 96.1216 76.3742H85.1654C83.7182 76.3742 82.9976 75.6546 82.9976 74.4144V24.0501C82.9976 22.8099 83.7182 22.0844 85.1654 22.0844H94.3639C95.7114 22.0844 96.4321 22.8099 96.4321 24.0501V32.176C98.1898 25.4717 103.258 22.061 112.251 22.061H115.972C117.313 22.061 118.034 22.7865 118.034 24.0267V32.41C118.034 33.7497 117.313 34.3698 115.972 34.3698H111.32Z" fill="white"/>
<path d="M182.634 61.6133C182.634 71.8335 178.088 76.3733 167.237 76.3733H140.362C129.611 76.3733 124.959 71.8335 124.959 61.6133V36.8552C124.959 26.6408 129.611 22.0952 140.362 22.0952H167.237C178.088 22.0952 182.634 26.6408 182.634 36.8552V61.6133ZM167.442 40.769C167.442 35.3985 166.411 34.3689 160.001 34.3689H147.698C141.188 34.3689 140.151 35.3985 140.151 40.769V57.6936C140.151 63.0582 141.188 64.0937 147.698 64.0937H160.001C166.411 64.0937 167.442 63.0582 167.442 57.6936V40.769Z" fill="white"/>
<path d="M197.932 34.37H192.759C191.411 34.37 190.69 33.7499 190.69 32.4102V24.0503C190.69 22.81 191.411 22.0846 192.759 22.0846H197.926V15.3803C197.932 5.15999 203.305 0.00012207 213.95 0.00012207H226.664C228.111 0.00012207 228.732 0.725546 228.732 1.95994V10.3199C228.732 11.6654 228.111 12.2797 226.664 12.2797H219.95C214.261 12.2797 213.124 13.5199 213.124 18.165V22.0846H226.664C228.111 22.0846 228.732 22.81 228.732 24.0503V32.4102C228.732 33.7499 228.111 34.37 226.664 34.37H213.124V74.4146C213.124 75.6548 212.404 76.3744 210.956 76.3744H200C198.553 76.3744 197.932 75.6548 197.932 74.4146V34.37Z" fill="white"/>
<path d="M240.105 34.37H234.943C233.601 34.37 232.881 33.7499 232.881 32.4102V24.0503C232.881 22.81 233.601 22.0846 234.943 22.0846H240.116V15.3803C240.105 5.15999 245.489 0.00012207 256.123 0.00012207H268.837C270.284 0.00012207 270.905 0.725546 270.905 1.95994V10.3199C270.905 11.6654 270.284 12.2797 268.837 12.2797H262.117C256.433 12.2797 255.297 13.5199 255.297 18.165V22.0846H268.837C270.284 22.0846 270.905 22.81 270.905 24.0503V32.4102C270.905 33.7499 270.284 34.37 268.837 34.37H255.297V74.4146C255.297 75.6548 254.57 76.3744 253.123 76.3744H242.167C240.72 76.3744 240.105 75.6548 240.105 74.4146V34.37Z" fill="white"/>
<path d="M317.103 97.4294H294.569C284.445 97.4294 280.103 93.5098 280.103 83.8043V82.7747C280.073 82.4977 280.106 82.2175 280.2 81.9549C280.293 81.6924 280.444 81.4541 280.642 81.258C280.84 81.0618 281.08 80.9128 281.344 80.8219C281.608 80.731 281.889 80.7006 282.166 80.733H292.712C294.159 80.733 294.88 81.4584 294.88 82.7981V83.3129C294.88 85.378 296.022 86.2029 298.295 86.2029H311.32C317.519 86.2029 319.071 84.6585 319.071 79.3933V63.1122C316.693 67.7573 312.146 70.1324 305.01 70.1324H294.464C283.713 70.1324 278.955 65.5927 278.955 55.3724V24.0505C278.941 23.78 278.986 23.5097 279.086 23.2581C279.186 23.0065 279.34 22.7796 279.537 22.5929C279.733 22.4062 279.968 22.2641 280.224 22.1764C280.481 22.0887 280.753 22.0574 281.023 22.0848H292.085C293.427 22.0848 294.153 22.8102 294.153 24.0505V51.482C294.153 56.8466 295.29 57.8821 301.7 57.8821H309.556C316.376 57.8821 319.065 55.0916 319.065 49.4169V24.0505C319.065 22.8102 319.786 22.0848 321.134 22.0848H332.201C332.466 22.0593 332.733 22.0927 332.983 22.1825C333.233 22.2724 333.46 22.4164 333.648 22.6044C333.835 22.7924 333.979 23.0196 334.068 23.2696C334.158 23.5197 334.19 23.7863 334.164 24.0505V81.0196C334.158 91.8483 328.369 97.4294 317.103 97.4294Z" fill="white"/>
</g>
<path d="M14.6912 126.213C14.6912 119.072 4.26872 122.172 4.26872 117.19C4.26872 115.114 5.90416 114.034 7.98312 114.09C10.3393 114.117 11.5589 115.584 11.7252 116.885H14.4972C14.1923 113.951 11.7807 111.931 8.09399 111.931C4.26872 111.931 1.69081 114.09 1.69081 117.273C1.69081 124.441 12.141 121.12 12.141 126.323C12.141 128.15 10.6996 129.534 8.26031 129.534C5.57153 129.534 4.43503 127.929 4.26872 126.323H1.57994C1.63537 129.506 4.3796 131.665 8.26031 131.665C12.4459 131.665 14.6912 128.953 14.6912 126.213Z" fill="#D4C2FF"/>
<path d="M31.8749 116.304H29.3524V124.635C29.3524 127.901 27.6061 129.506 25.0004 129.506C22.4503 129.506 20.7594 127.929 20.7594 124.857V116.304H18.2646V125.189C18.2646 129.534 21.0089 131.693 24.5015 131.693C26.525 131.693 28.3822 130.807 29.3524 129.23V131.472H31.8749V116.304Z" fill="#D4C2FF"/>
<path d="M35.1914 123.832C35.1914 128.538 38.3237 131.721 42.3708 131.721C45.1704 131.721 47.1385 130.281 48.0532 128.648V131.472H50.6034V116.304H48.0532V119.072C47.1662 117.494 45.2259 116.055 42.3985 116.055C38.3237 116.055 35.1914 119.1 35.1914 123.832ZM48.0532 123.86C48.0532 127.431 45.6694 129.506 42.8974 129.506C40.1255 129.506 37.7693 127.403 37.7693 123.832C37.7693 120.262 40.1255 118.241 42.8974 118.241C45.6694 118.241 48.0532 120.345 48.0532 123.86Z" fill="#D4C2FF"/>
<path d="M64.7786 119.1V116.304H62.2562V138.668H64.7786V128.676C65.7211 130.226 67.6892 131.721 70.4611 131.721C74.5359 131.721 77.6682 128.538 77.6682 123.832C77.6682 119.1 74.5359 116.055 70.4611 116.055C67.6892 116.055 65.6934 117.494 64.7786 119.1ZM75.0903 123.832C75.0903 127.403 72.7341 129.506 69.9345 129.506C67.1902 129.506 64.7786 127.431 64.7786 123.86C64.7786 120.345 67.1902 118.241 69.9345 118.241C72.7341 118.241 75.0903 120.262 75.0903 123.832Z" fill="#D4C2FF"/>
<path d="M80.9884 131.472H83.5109V110.99H80.9884V131.472Z" fill="#D4C2FF"/>
<path d="M86.8675 123.832C86.8675 128.538 89.9998 131.721 94.0469 131.721C96.8465 131.721 98.8146 130.281 99.7293 128.648V131.472H102.28V116.304H99.7293V119.072C98.8423 117.494 96.902 116.055 94.0746 116.055C89.9998 116.055 86.8675 119.1 86.8675 123.832ZM99.7293 123.86C99.7293 127.431 97.3455 129.506 94.5735 129.506C91.8016 129.506 89.4454 127.403 89.4454 123.832C89.4454 120.262 91.8016 118.241 94.5735 118.241C97.3455 118.241 99.7293 120.345 99.7293 123.86Z" fill="#D4C2FF"/>
<path d="M107.013 131.472H109.536V118.38H112.724V116.304H109.536V115.225C109.536 113.259 110.284 112.429 112.557 112.429V110.326C108.677 110.326 107.013 111.848 107.013 115.225V116.304H105.045V118.38H107.013V131.472Z" fill="#D4C2FF"/>
<path d="M130.079 123.86C130.079 119.072 126.725 116.055 122.401 116.055C118.104 116.055 114.722 119.072 114.722 123.86C114.722 128.676 117.993 131.721 122.29 131.721C126.614 131.721 130.079 128.676 130.079 123.86ZM117.3 123.86C117.3 120.041 119.712 118.241 122.373 118.241C124.978 118.241 127.501 120.041 127.501 123.86C127.501 127.707 124.923 129.506 122.29 129.506C119.656 129.506 117.3 127.707 117.3 123.86Z" fill="#D4C2FF"/>
<path d="M135.918 123.224C135.918 119.708 137.747 118.629 140.159 118.629H140.824V116.027C138.413 116.027 136.777 117.079 135.918 118.767V116.304H133.395V131.472H135.918V123.224Z" fill="#D4C2FF"/>
<path d="M165.662 131.472H168.157V122.532C168.157 118.186 165.468 116.027 162.003 116.027C159.675 116.027 157.513 117.217 156.626 119.404C155.628 117.134 153.549 116.027 151.054 116.027C149.058 116.027 147.256 116.885 146.259 118.491V116.304H143.736V131.472H146.259V123.113C146.259 119.847 148.005 118.214 150.555 118.214C153.05 118.214 154.713 119.791 154.713 122.891V131.472H157.208V123.113C157.208 119.847 158.954 118.214 161.504 118.214C163.999 118.214 165.662 119.791 165.662 122.891V131.472Z" fill="#D4C2FF"/>
<path d="M171.352 123.832C171.352 128.538 174.484 131.721 178.531 131.721C181.331 131.721 183.299 130.281 184.214 128.648V131.472H186.764V116.304H184.214V119.072C183.327 117.494 181.387 116.055 178.559 116.055C174.484 116.055 171.352 119.1 171.352 123.832ZM184.214 123.86C184.214 127.431 181.83 129.506 179.058 129.506C176.286 129.506 173.93 127.403 173.93 123.832C173.93 120.262 176.286 118.241 179.058 118.241C181.83 118.241 184.214 120.345 184.214 123.86Z" fill="#D4C2FF"/>
<path d="M197.474 123.832C197.474 128.538 200.607 131.721 204.681 131.721C207.453 131.721 209.422 130.309 210.336 128.621V131.472H212.886V110.99H210.336V119.016C209.283 117.273 207.093 116.055 204.709 116.055C200.607 116.055 197.474 119.1 197.474 123.832ZM210.336 123.86C210.336 127.431 207.952 129.506 205.18 129.506C202.408 129.506 200.052 127.403 200.052 123.832C200.052 120.262 202.408 118.241 205.18 118.241C207.952 118.241 210.336 120.345 210.336 123.86Z" fill="#D4C2FF"/>
<path d="M223.608 118.186C226.213 118.186 228.431 119.819 228.403 122.781H218.812C219.09 119.819 221.141 118.186 223.608 118.186ZM230.704 126.794H227.987C227.433 128.427 225.992 129.589 223.719 129.589C221.141 129.589 218.979 127.901 218.785 124.829H230.926C230.981 124.303 231.009 123.86 231.009 123.307C231.009 119.155 228.126 116.055 223.719 116.055C219.284 116.055 216.207 119.072 216.207 123.86C216.207 128.676 219.394 131.721 223.719 131.721C227.488 131.721 229.928 129.562 230.704 126.794Z" fill="#D4C2FF"/>
<path d="M8.59294 153.553C11.1986 153.553 13.4161 155.186 13.3884 158.147H3.79749C4.07468 155.186 6.12592 153.553 8.59294 153.553ZM15.6891 162.16H12.9726C12.4182 163.793 10.9768 164.956 8.70382 164.956C6.12592 164.956 3.9638 163.268 3.76977 160.195H15.9109C15.9663 159.669 15.994 159.227 15.994 158.673C15.994 154.521 13.1112 151.421 8.70382 151.421C4.26872 151.421 1.19186 154.438 1.19186 159.227C1.19186 164.043 4.3796 167.087 8.70382 167.087C12.4737 167.087 14.913 164.928 15.6891 162.16Z" fill="#D4C2FF"/>
<path d="M30.245 162.714C30.1342 157.289 21.3194 159.254 21.3194 155.656C21.3194 154.438 22.4282 153.553 24.2854 153.553C26.3089 153.553 27.4731 154.66 27.584 156.182H30.1064C29.9401 153.22 27.7226 151.421 24.3685 151.421C20.9868 151.421 18.7969 153.331 18.7969 155.656C18.7969 161.302 27.778 159.337 27.778 162.714C27.778 163.959 26.6692 164.956 24.6734 164.956C22.539 164.956 21.2362 163.849 21.0976 162.382H18.492C18.6583 165.15 21.1531 167.087 24.7012 167.087C28.0552 167.087 30.245 165.205 30.245 162.714Z" fill="#D4C2FF"/>
<path d="M34.3603 162.686C34.3603 165.731 35.8849 166.838 38.5736 166.838H40.8466V164.707H38.9894C37.4371 164.707 36.8828 164.181 36.8828 162.686V153.746H40.8466V151.67H36.8828V147.851H34.3603V151.67H32.3922V153.746H34.3603V162.686Z" fill="#D4C2FF"/>
<path d="M57.3745 151.67H54.8521V160.002C54.8521 163.268 53.1057 164.873 50.5001 164.873C47.9499 164.873 46.2591 163.295 46.2591 160.223V151.67H43.7643V160.555C43.7643 164.901 46.5085 167.059 50.0012 167.059C52.0247 167.059 53.8819 166.174 54.8521 164.596V166.838H57.3745V151.67Z" fill="#D4C2FF"/>
<path d="M60.6911 159.199C60.6911 163.904 63.8234 167.087 67.8982 167.087C70.6701 167.087 72.6382 165.676 73.5529 163.987V166.838H76.1031V146.356H73.5529V154.383C72.4996 152.639 70.3098 151.421 67.9259 151.421C63.8234 151.421 60.6911 154.466 60.6911 159.199ZM73.5529 159.227C73.5529 162.797 71.1691 164.873 68.3971 164.873C65.6252 164.873 63.269 162.769 63.269 159.199C63.269 155.628 65.6252 153.608 68.3971 153.608C71.1691 153.608 73.5529 155.711 73.5529 159.227Z" fill="#D4C2FF"/>
<path d="M94.7799 159.227C94.7799 154.438 91.4259 151.421 87.1016 151.421C82.8051 151.421 79.4234 154.438 79.4234 159.227C79.4234 164.043 82.6943 167.087 86.9908 167.087C91.315 167.087 94.7799 164.043 94.7799 159.227ZM82.0013 159.227C82.0013 155.407 84.4129 153.608 87.0739 153.608C89.6795 153.608 92.202 155.407 92.202 159.227C92.202 163.074 89.6241 164.873 86.9908 164.873C84.3574 164.873 82.0013 163.074 82.0013 159.227Z" fill="#D4C2FF"/>
<path d="M109.018 162.714C108.907 157.289 100.092 159.254 100.092 155.656C100.092 154.438 101.201 153.553 103.058 153.553C105.082 153.553 106.246 154.66 106.357 156.182H108.879C108.713 153.22 106.495 151.421 103.141 151.421C99.7597 151.421 97.5698 153.331 97.5698 155.656C97.5698 161.302 106.551 159.337 106.551 162.714C106.551 163.959 105.442 164.956 103.446 164.956C101.312 164.956 100.009 163.849 99.8705 162.382H97.2649C97.4312 165.15 99.926 167.087 103.474 167.087C106.828 167.087 109.018 165.205 109.018 162.714Z" fill="#D4C2FF"/>
<path d="M134.383 159.227C134.383 154.438 131.029 151.421 126.705 151.421C122.408 151.421 119.026 154.438 119.026 159.227C119.026 164.043 122.297 167.087 126.594 167.087C130.918 167.087 134.383 164.043 134.383 159.227ZM121.604 159.227C121.604 155.407 124.016 153.608 126.677 153.608C129.283 153.608 131.805 155.407 131.805 159.227C131.805 163.074 129.227 164.873 126.594 164.873C123.96 164.873 121.604 163.074 121.604 159.227Z" fill="#D4C2FF"/>
<path d="M148.815 166.838H151.31V157.898C151.31 153.553 148.621 151.394 145.101 151.394C143.049 151.394 141.22 152.252 140.222 153.829V151.67H137.7V166.838H140.222V158.452C140.222 155.186 141.996 153.58 144.574 153.58C147.124 153.58 148.815 155.158 148.815 158.258V166.838Z" fill="#D4C2FF"/>
<path d="M155.43 166.838H157.953V146.356H155.43V166.838Z" fill="#D4C2FF"/>
<path d="M162.252 166.838H164.774V151.67H162.252V166.838ZM163.555 149.207C164.469 149.207 165.218 148.46 165.218 147.491C165.218 146.522 164.469 145.775 163.555 145.775C162.584 145.775 161.836 146.522 161.836 147.491C161.836 148.46 162.584 149.207 163.555 149.207Z" fill="#D4C2FF"/>
<path d="M180.189 166.838H182.684V157.898C182.684 153.553 179.995 151.394 176.474 151.394C174.423 151.394 172.594 152.252 171.596 153.829V151.67H169.073V166.838H171.596V158.452C171.596 155.186 173.37 153.58 175.948 153.58C178.498 153.58 180.189 155.158 180.189 158.258V166.838Z" fill="#D4C2FF"/>
<path d="M193.263 153.553C195.868 153.553 198.086 155.186 198.058 158.147H188.467C188.744 155.186 190.796 153.553 193.263 153.553ZM200.359 162.16H197.642C197.088 163.793 195.646 164.956 193.373 164.956C190.796 164.956 188.633 163.268 188.439 160.195H200.581C200.636 159.669 200.664 159.227 200.664 158.673C200.664 154.521 197.781 151.421 193.373 151.421C188.938 151.421 185.862 154.438 185.862 159.227C185.862 164.043 189.049 167.087 193.373 167.087C197.143 167.087 199.583 164.928 200.359 162.16Z" fill="#D4C2FF"/>
<path d="M206.46 165.288C206.46 164.319 205.712 163.572 204.797 163.572C203.827 163.572 203.079 164.319 203.079 165.288C203.079 166.257 203.827 167.004 204.797 167.004C205.712 167.004 206.46 166.257 206.46 165.288Z" fill="#D4C2FF"/>
<defs>
<clipPath id="clip0">
<rect width="334.173" height="97.6421" fill="white"/>
</clipPath>
</defs>
</svg>
